<svg xmlns="http://www.w3.org/2000/svg" id="SvgjsSvg14454" width="4096" height="3083.142405269343" version="1.1" xmlns:xlink="http://www.w3.org/1999/xlink" xmlns:svgjs="http://svgjs.com/svgjs"><defs id="SvgjsDefs14455"></defs><g id="SvgjsG14456" transform="translate(328, 328) scale(34.4)" opacity="1"><defs id="SvgjsDefs4084"></defs><g id="SvgjsG4085" transform="scale(0.24765344074923717)" opacity="1"><g id="SvgjsG4086" class="I_5C2kBWB" transform="translate(0, 176.85887335217978) scale(1)" light-content="false" fill="#000000"><path d="M0 0 h 80.7580138579666 v 8 h -80.7580138579666 ZM323.0320554318664 0 h 80.75801385796657 v 8 h -80.75801385796657 Z M0 0 h 8 v 108.04112664782016 h -8 Z M403.79006928983296 108.04112664782016 h -80.75801385796657 v -8 h 80.75801385796657 ZM80.7580138579666 108.04112664782016 h -80.7580138579666 v -8 h 80.7580138579666 Z M403.79006928983296 108.04112664782016 h -8 v -108.04112664782016 h 8 Z" fill-rule="nonzero"></path></g><g id="SvgjsG4087" class="8i4zvsTc1t" transform="translate(103.15004484897787, 15.121675769785469) scale(6.1848463261349504 6.1848463261349504)" light-content="false" non-strokable="false" fill="#080808"><path d="M15.998 2a.5.5 0 0 0-.492.508V4a.5.5 0 0 0-.498.5V5h-.75a.5.5 0 0 0-.447.277l-1.75 3.5a.5.5 0 0 0 0 .448l1.75 3.5a.5.5 0 0 0 .447.275h.25v.5a.5.5 0 0 0 .5.5h.498v1.057a2.504 2.504 0 0 0-1.809 1.488 2.5 2.5 0 0 0 .541 2.723c.159.158.337.286.526.394L5.864 25H3.5a.5.5 0 1 0 0 1h2.008v3H3.5a.5.5 0 1 0 0 1h25a.5.5 0 1 0 0-1h-1.992v-3H28.5a.5.5 0 1 0 0-1h-2.35l-8.898-5.336a2.503 2.503 0 0 0 1.256-2.164.5.5 0 1 0-1 0 1.5 1.5 0 1 1-1.5-1.5.5.5 0 0 0 .006 0 .5.5 0 0 0 .068-.006.5.5 0 0 0 .025-.004.5.5 0 0 0 .006-.002.5.5 0 0 0 .043-.01.5.5 0 0 0 .35-.574V14h.502a.5.5 0 0 0 .5-.5V13h.25a.5.5 0 0 0 .447-.275l1.75-3.5a.5.5 0 0 0 0-.448l-1.75-3.5A.5.5 0 0 0 17.758 5h-.75v-.5a.5.5 0 0 0-.5-.5h-.002V2.508A.5.5 0 0 0 15.998 2zm-1.432 4h2.881l1.5 3-1.5 3h-2.881l-1.5-3 1.5-3zm1.442 14.082L24.207 25h-16.4l8.2-4.918zM6.508 26h1v3h-1v-3zm2 0h3v3h-3v-3zm4 0h1v3h-1v-3zm2 0h3v3h-3v-3zm4 0h1v3h-1v-3zm2 0h3v3h-3v-3zm4 0h1v3h-1v-3z" color="#000" font-weight="400" font-family="sans-serif" overflow="visible" fill-rule="evenodd" style="line-height: normal; text-indent: 0; text-align: start; text-decoration-line: none; text-decoration-style: solid; text-decoration-color: #000; text-transform: none; block-progression: tb; white-space: normal; isolation: auto; mix-blend-mode: normal; solid-color: #000; solid-opacity: 1"></path></g><g id="SvgjsG4088" class="a05OuI4wMV" transform="translate(134.67778055062982, -11.899822183072637) scale(1.1570075044309787)" light-content="false" non-strokable="false" fill="#000000"><path d="M36.801 35.392v-.001L17.916 46.283l2.91 5.04 18.885-10.892zm-9.619-20.291L5 27.918c5.212 6.209 8.014 10.976 11.921 16.461l18.752-10.797c-2.76-6.147-5.534-10.968-8.491-18.481z"></path><path d="M90.026 29.443l-5.88 7.412.266 4.149-11.379 19.715c-1.778-1.024-3.59-1.971-3.933-1.377-.324.562-.219 1.152.21 1.764-.899.212-1.691.798-2.34 1.92l-4.917 8.52c-.003-.778-.012-1.546-.011-2.335.004-7.041.123-14.607-.564-22.043a25.462 25.462 0 0 0-.687-3.391c-.436-1.558-.454-2.018-.547-12.147-.105-11.5-.027-12.796.857-13.957.733-.962 1.925-1.524 3.324-1.565.946-.052 1.387.082 2.434.625 1.039.535 1.508.658 2.533.659.918-.001 1.335-.093 1.533-.33.188-.227.299-1.161.354-3.031.101-3.459-.022-3.718-1.776-3.718-.764 0-1.541.155-2.168.428-1.602.695-2.952.717-4.718.082a8.68 8.68 0 0 0-2.921-.537l-.001-.001c-7.756.258-13.105 3.682-17.092 11.877-.005 0-.012.051-.017.051-.173.412-.279.836-.027.902.702.186 1.226-.242 3.219-2.611 2.721-3.232 4.017-4.086 6.224-4.099 1.26 0 1.409.082 1.919 1.239.324.732.466 1.795.691 4.945.683 9.532.569 19.188-.266 22.215-.265.961-.416 1.704-.453 2.247-.67 9.965.002 21.176-.293 32.188-5.578-8.416-14.016-19.301-15.793-25.645 1.604-5.046 4.314-9.208 3.429-10.626L22.253 53.914c.894 1.483 5.798 1.334 11.119 2.456 5.087 5.119 10.464 19.546 15.151 28.505.674 1.289 3.433 1.057 4.498.443.104-.062.21-.144.321-.237-.054.811-.114 1.618-.183 2.423.103 1.244.34 1.529 1.564 1.903.89.272 5.759.423 6.583.206 1.568-.412 1.994-.999 1.814-2.45 2.064.753 3.891.591 5.155-1.599l9.442-16.313c.648-1.122.729-2.119.459-3.004.744.062 1.318-.107 1.643-.675.394-.646-1.54-1.854-3.324-2.859-.022 0-.044-.052-.066-.052L87.79 42.979l3.735-1.849L95 32.335l-4.974-2.892zm-38.03 54.135a1.13 1.13 0 0 1-1.576-1.48 1.09 1.09 0 0 1 .448-.475 1.2 1.2 0 0 1 .536-.159l.001.005c.4 0 .791.191 1.007.565a1.129 1.129 0 0 1-.416 1.544zm10.373-2.256h-.006l-.211.371a1.744 1.744 0 0 1-.198.278c-.037.052-.076.077-.116.113-.039.052-.08.072-.122.103-.043.052-.088.062-.133.083-.059.051-.125.066-.188.093-.082.051-.163.066-.25.092-.152.052-.314.057-.475.052h-.16c-.109 0-.215-.052-.321-.066-.053 0-.104-.052-.155-.062-.051-.051-.099-.051-.149-.077l-.249-.144a1.656 1.656 0 0 1-.393-.314c-.037-.052-.072-.078-.104-.124a1.519 1.519 0 0 1-.172-.278c-.023-.051-.042-.093-.062-.144-.019-.052-.036-.098-.05-.15a1.64 1.64 0 0 1-.054-.478c.002-.052.004-.104.011-.165.014-.104.042-.211.077-.314.036-.104.081-.211.139-.31l.266-.458 9.254-16.036c.23-.402.624-.67 1.034-.779.154-.052.316-.057.477-.052v.009c.266 0 .535.078.785.222l.216.124c.8.463 1.075 1.49.613 2.29l-9.304 16.121zM76.635 68.04L67.11 84.536a1.68 1.68 0 0 1-2.29.614l-.216-.124a1.652 1.652 0 0 1-.608-2.268l9.52-16.49c.23-.401.591-.686 1.001-.797.104-.051.209-.051.315-.051v.002c.32 0 .651.062.951.236l.244.114a1.654 1.654 0 0 1 .608 2.268z"></path></g><g id="SvgjsG4089" class="text" transform="translate(203.24812184749464, 230.65999702453612) scale(1)" light-content="false" fill="#000000"><path d="M-162.34 -1.14L-162.34 0L-156.58 0L-156.58 -1.14L-159.2 -1.14L-157.28 -6.22L-148.43 -6.22L-146.33 -1.14L-148.52 -1.14L-148.52 0L-140.57 0L-140.57 -1.14L-142.06 -1.14L-150.85 -22.3L-152.54 -22.3L-160.76 -1.14ZM-148.9 -7.36L-156.84 -7.36L-153.04 -17.43Z M-136.26 -1.15L-136.26 0L-118.65 0L-118.65 -6.78L-119.79 -6.78C-119.84 -6.06 -119.94 -5.36 -120.1 -4.68C-120.64 -2.32 -122.19 -1.14 -124.75 -1.14L-129.21 -1.14L-129.21 -21.18L-126.61 -21.18L-126.61 -22.3L-135.58 -22.3L-135.58 -21.18L-133.13 -21.18L-133.14 -1.14Z M-113.18 -1.14L-113.18 0L-103.56 0C-101.83 0 -100.31 -0.18 -99.01 -0.54C-96.53 -1.22 -94.64 -2.39 -93.34 -4.05C-91.73 -6.12 -90.92 -8.55 -90.92 -11.33C-90.92 -13.41 -91.27 -15.22 -91.98 -16.75C-93.7 -20.45 -97.49 -22.3 -103.35 -22.3L-113.18 -22.3L-113.18 -21.16L-110.25 -21.16L-110.26 -1.14ZM-103.73 -1.14L-106.33 -1.14L-106.33 -21.16L-103.54 -21.16C-100.73 -21.16 -98.65 -20.46 -97.3 -19.06C-95.94 -17.65 -95.23 -15.19 -95.18 -11.68L-95.18 -11.22C-95.18 -7.55 -95.84 -4.95 -97.16 -3.43C-98.48 -1.9 -100.67 -1.14 -103.73 -1.14Z M-72.38 -1.14L-72.38 0L-62.76 0C-61.03 0 -59.52 -0.18 -58.22 -0.54C-55.74 -1.22 -53.85 -2.39 -52.55 -4.05C-50.93 -6.12 -50.13 -8.55 -50.13 -11.33C-50.13 -13.41 -50.48 -15.22 -51.19 -16.75C-52.91 -20.45 -56.7 -22.3 -62.56 -22.3L-72.38 -22.3L-72.38 -21.16L-69.45 -21.16L-69.47 -1.14ZM-62.94 -1.14L-65.53 -1.14L-65.53 -21.16L-62.75 -21.16C-59.94 -21.16 -57.86 -20.46 -56.5 -19.06C-55.15 -17.65 -54.44 -15.19 -54.38 -11.68L-54.38 -11.22C-54.38 -7.55 -55.04 -4.95 -56.36 -3.43C-57.69 -1.9 -59.88 -1.14 -62.94 -1.14Z M-44.34 -1.14L-44.34 0L-34.66 0L-34.66 -1.14L-37.54 -1.14L-37.54 -21.16L-34.66 -21.16L-34.66 -22.3L-44.34 -22.3L-44.34 -21.16L-41.46 -21.16L-41.47 -1.14Z M-19.29 -22.3L-29.19 -22.3L-29.19 -21.16L-26.82 -21.16L-26.84 -1.14L-29.19 -1.14L-29.19 0L-19.49 0L-19.49 -1.14L-22.9 -1.14L-22.9 -10.25L-20.24 -10.25C-19.16 -10.25 -18.28 -9.93 -17.6 -9.3C-16.92 -8.67 -16.36 -7.8 -15.94 -6.69C-15.73 -6.18 -15.47 -5.21 -15.15 -3.8C-14.8 -2.26 -14.29 -1.22 -13.62 -0.7C-12.96 -0.18 -11.68 0.07 -9.77 0.07L-7.72 0.07L-7.74 -1.14L-8.33 -1.14C-9.2 -1.14 -9.86 -1.58 -10.31 -2.48C-10.51 -2.88 -10.74 -3.55 -11 -4.51C-11.26 -5.47 -11.56 -6.35 -11.9 -7.14C-12.74 -9.12 -14.31 -10.29 -16.59 -10.67C-14.86 -10.95 -13.48 -11.6 -12.45 -12.61C-11.42 -13.62 -10.91 -14.97 -10.91 -16.68C-10.91 -20.43 -13.7 -22.3 -19.29 -22.3ZM-19.55 -11.25L-22.9 -11.25L-22.9 -21.16L-19.81 -21.16C-18 -21.16 -16.71 -20.72 -15.95 -19.82C-15.34 -19.1 -15.03 -17.99 -15.03 -16.47C-15.03 -14.96 -15.29 -13.78 -15.82 -12.96C-16.54 -11.82 -17.78 -11.25 -19.55 -11.25Z M-3.91 -1.15L-3.91 0L15.27 0L15.27 -6.78L14.13 -6.78C14.08 -6.06 13.98 -5.36 13.83 -4.68C13.28 -2.32 11.73 -1.14 9.18 -1.14L2.94 -1.14L2.94 -10.87L6.58 -10.87C7.39 -10.87 8.02 -10.74 8.47 -10.47C8.92 -10.21 9.2 -9.74 9.29 -9.07C9.31 -8.87 9.33 -8.63 9.34 -8.34C9.36 -8.05 9.37 -7.79 9.39 -7.57L10.62 -7.57L10.62 -15.09L9.39 -15.09C9.37 -14.87 9.36 -14.66 9.34 -14.44C9.33 -14.22 9.31 -14.01 9.29 -13.82C9.2 -13.15 8.93 -12.68 8.48 -12.41C8.04 -12.14 7.41 -12.01 6.58 -12.01L2.94 -12.01L2.94 -21.16L9.6 -21.16C11.33 -21.08 12.47 -20.59 13.04 -19.69C13.32 -19.26 13.5 -18.72 13.59 -18.1C13.68 -17.47 13.75 -16.75 13.8 -15.95L14.93 -15.95L14.93 -22.3L-3.91 -22.3L-3.91 -21.16L-0.98 -21.16L-1 -1.15Z M39.46 -20.73C39.22 -20.95 38.89 -21.17 38.49 -21.4C37.03 -22.19 35.32 -22.59 33.35 -22.59C29.73 -22.59 26.9 -21.51 24.86 -19.34C22.83 -17.16 21.81 -14.42 21.81 -11.11C21.81 -7.79 22.83 -5.07 24.87 -2.92C26.91 -0.78 29.65 0.29 33.09 0.29C35.51 0.29 37.52 -0.27 39.13 -1.38C40.29 -2.19 41.06 -3.04 41.43 -3.92L40.67 -4.62C39.97 -3.55 39.01 -2.7 37.78 -2.08C36.55 -1.45 35.05 -1.14 33.27 -1.14C30.94 -1.14 29.16 -2.18 27.93 -4.27C26.87 -6.08 26.33 -8.35 26.3 -11.08C26.26 -17.95 28.7 -21.38 33.62 -21.38C35.09 -21.38 36.46 -20.92 37.72 -20C38.98 -19.08 39.75 -17.81 40.03 -16.19L41.27 -16.19L41.27 -22.3L40.07 -22.3C40.06 -21.71 39.85 -21.18 39.46 -20.73Z M52.07 -1.14L52.07 0L61.82 0L61.82 -1.14L58.9 -1.14L58.9 -21.18L61.6 -21.18C63.19 -21.07 64.31 -20.48 64.94 -19.4C65.43 -18.56 65.73 -17.19 65.81 -15.29L66.95 -15.29L66.95 -22.3L46.92 -22.3L46.92 -15.29L48.06 -15.29C48.15 -17.2 48.43 -18.57 48.92 -19.4C49.55 -20.48 50.67 -21.07 52.27 -21.18L54.98 -21.18L54.97 -1.14Z M85.43 -1.14L85.43 0L95.11 0L95.11 -1.14L92.23 -1.14L92.23 -21.16L95.11 -21.16L95.11 -22.3L85.43 -22.3L85.43 -21.16L88.31 -21.16L88.3 -1.14Z M100.83 -1.14L100.83 0L107.75 0L107.75 -1.14L104.8 -1.14L104.8 -19.34L117.96 0L120.67 0L120.67 -21.16L123.34 -21.16L123.34 -22.3L116.41 -22.3L116.41 -21.16L119.24 -21.16L119.24 -4.74L107.43 -22.3L100.83 -22.3L100.83 -21.16L103.37 -21.16L103.37 -1.14Z M146.39 -20.73C146.15 -20.95 145.83 -21.17 145.42 -21.4C143.96 -22.19 142.25 -22.59 140.29 -22.59C136.66 -22.59 133.83 -21.51 131.8 -19.34C129.76 -17.16 128.74 -14.42 128.74 -11.11C128.74 -7.79 129.76 -5.07 131.8 -2.92C133.84 -0.78 136.58 0.29 140.02 0.29C142.44 0.29 144.45 -0.27 146.06 -1.38C147.22 -2.19 147.99 -3.04 148.36 -3.92L147.6 -4.62C146.9 -3.55 145.94 -2.7 144.71 -2.08C143.48 -1.45 141.98 -1.14 140.2 -1.14C137.87 -1.14 136.09 -2.18 134.86 -4.27C133.8 -6.08 133.26 -8.35 133.23 -11.08C133.19 -17.95 135.63 -21.38 140.55 -21.38C142.03 -21.38 143.39 -20.92 144.65 -20C145.91 -19.08 146.68 -17.81 146.96 -16.19L148.2 -16.19L148.2 -22.3L147.01 -22.3C146.99 -21.71 146.78 -21.18 146.39 -20.73Z M155.34 -2.06C155.34 -1.39 155.56 -0.84 156 -0.4C156.45 0.04 157 0.26 157.67 0.26C158.33 0.26 158.88 0.04 159.33 -0.4C159.77 -0.84 159.99 -1.4 159.99 -2.06C159.99 -2.73 159.77 -3.28 159.32 -3.73C158.87 -4.18 158.32 -4.4 157.66 -4.4C157.33 -4.4 157.02 -4.34 156.74 -4.23C155.81 -3.82 155.34 -3.1 155.34 -2.06Z"></path></g><g id="SvgjsG4090" class="text" transform="translate(202.66854095622386, 280.3699988555907) scale(1)" light-content="false" fill="#000000"><path d="M-109.83 -0.63L-109.83 0L-106.63 0L-106.63 -0.63L-108.09 -0.63L-107.02 -3.46L-102.1 -3.46L-100.94 -0.63L-102.15 -0.63L-102.15 0L-97.74 0L-97.74 -0.63L-98.56 -0.63L-103.45 -12.39L-104.39 -12.39L-108.95 -0.63ZM-102.36 -4.09L-106.77 -4.09L-104.66 -9.69Z M-88.43 -0.84L-88.43 0L-85.12 0L-85.12 -0.63L-86.32 -0.63L-86.32 -13.64L-90.1 -13.64L-90.1 -13.01L-88.43 -13.01L-88.43 -7.68C-88.57 -7.79 -88.74 -7.89 -88.94 -7.98C-89.54 -8.28 -90.2 -8.42 -90.91 -8.42C-92.04 -8.42 -93 -8.03 -93.78 -7.26C-94.56 -6.48 -94.95 -5.42 -94.95 -4.08C-94.95 -3.37 -94.85 -2.74 -94.65 -2.2C-94.45 -1.66 -94.17 -1.21 -93.82 -0.86C-93.48 -0.51 -93.07 -0.25 -92.61 -0.09C-92.15 0.08 -91.71 0.16 -91.28 0.16C-90.02 0.16 -89.06 -0.17 -88.43 -0.84ZM-90.57 -7.73C-90.39 -7.73 -90.21 -7.7 -90.01 -7.66C-89.37 -7.53 -88.84 -7.25 -88.43 -6.82L-88.43 -1.81C-88.67 -1.44 -88.99 -1.14 -89.36 -0.92C-89.74 -0.7 -90.13 -0.59 -90.54 -0.59C-90.94 -0.58 -91.28 -0.66 -91.54 -0.83C-92.3 -1.28 -92.69 -2.4 -92.69 -4.16C-92.69 -6.54 -91.98 -7.73 -90.57 -7.73Z M-75.71 -0.84L-75.71 0L-72.41 0L-72.41 -0.63L-73.61 -0.63L-73.61 -13.64L-77.39 -13.64L-77.39 -13.01L-75.71 -13.01L-75.71 -7.68C-75.86 -7.79 -76.03 -7.89 -76.22 -7.98C-76.83 -8.28 -77.49 -8.42 -78.2 -8.42C-79.33 -8.42 -80.28 -8.03 -81.07 -7.26C-81.85 -6.48 -82.24 -5.42 -82.24 -4.08C-82.24 -3.37 -82.14 -2.74 -81.94 -2.2C-81.73 -1.66 -81.46 -1.21 -81.11 -0.86C-80.76 -0.51 -80.36 -0.25 -79.9 -0.09C-79.43 0.08 -78.99 0.16 -78.57 0.16C-77.3 0.16 -76.35 -0.17 -75.71 -0.84ZM-77.86 -7.73C-77.68 -7.73 -77.5 -7.7 -77.3 -7.66C-76.66 -7.53 -76.13 -7.25 -75.71 -6.82L-75.71 -1.81C-75.96 -1.44 -76.27 -1.14 -76.65 -0.92C-77.02 -0.7 -77.42 -0.59 -77.82 -0.59C-78.23 -0.58 -78.57 -0.66 -78.83 -0.83C-79.59 -1.28 -79.97 -2.4 -79.97 -4.16C-79.97 -6.54 -79.27 -7.73 -77.86 -7.73Z M-62.48 -7.65L-58.74 0.16L-57.89 0.16L-54.68 -7.65L-53.63 -7.65L-53.63 -8.28L-56.57 -8.28L-56.57 -7.65L-55.48 -7.65L-57.67 -2.09L-60.1 -7.65L-59.05 -7.65L-59.05 -8.28L-63.32 -8.28L-63.32 -7.65Z M-45.78 -0.92C-45.66 -0.57 -45.45 -0.31 -45.15 -0.13C-44.85 0.05 -44.56 0.15 -44.27 0.15C-43.44 0.15 -42.84 -0.13 -42.47 -0.69L-42.89 -1.04C-43.09 -0.77 -43.31 -0.63 -43.53 -0.63C-43.75 -0.63 -43.86 -0.86 -43.86 -1.3L-43.86 -5.62C-43.86 -6.5 -44.15 -7.19 -44.74 -7.68C-45.32 -8.17 -46.22 -8.41 -47.43 -8.41C-47.87 -8.41 -48.34 -8.34 -48.84 -8.2C-49.34 -8.05 -49.75 -7.84 -50.08 -7.56C-50.25 -7.42 -50.39 -7.25 -50.49 -7.07C-50.6 -6.89 -50.65 -6.66 -50.65 -6.38C-50.65 -6.1 -50.54 -5.86 -50.33 -5.66C-50.12 -5.46 -49.83 -5.36 -49.45 -5.36C-49.23 -5.36 -49.02 -5.46 -48.8 -5.66C-48.59 -5.85 -48.48 -6.1 -48.48 -6.4C-48.48 -6.55 -48.5 -6.68 -48.54 -6.79C-48.68 -7.09 -48.87 -7.28 -49.12 -7.35C-49.02 -7.45 -48.83 -7.55 -48.54 -7.64C-48.26 -7.73 -47.91 -7.78 -47.49 -7.78C-47.22 -7.78 -46.98 -7.74 -46.76 -7.64C-46.55 -7.55 -46.36 -7.39 -46.19 -7.16C-46.03 -6.93 -45.95 -6.48 -45.95 -5.83L-45.95 -3.9C-46.55 -4.35 -47.3 -4.58 -48.19 -4.58C-49.08 -4.58 -49.81 -4.37 -50.38 -3.96C-50.95 -3.54 -51.23 -2.98 -51.23 -2.26C-51.23 -1.53 -50.94 -0.95 -50.36 -0.51C-49.79 -0.06 -49.1 0.16 -48.3 0.16C-47.25 0.16 -46.41 -0.2 -45.78 -0.92ZM-45.93 -3.18L-45.93 -1.56C-46.03 -1.43 -46.15 -1.31 -46.27 -1.2C-46.72 -0.82 -47.19 -0.63 -47.68 -0.63C-47.86 -0.63 -48.03 -0.66 -48.19 -0.71C-48.78 -0.89 -49.08 -1.4 -49.08 -2.24C-49.08 -2.8 -48.94 -3.21 -48.66 -3.47C-48.39 -3.73 -47.98 -3.85 -47.43 -3.85C-46.89 -3.85 -46.39 -3.63 -45.93 -3.18Z M-40.15 -0.63L-40.15 0L-35.38 0L-35.38 -0.63L-36.75 -0.63L-36.75 -13.64L-40.21 -13.64L-40.21 -13L-38.89 -13L-38.89 -0.63Z M-26.26 -0.79L-26.26 0L-23.13 0L-23.13 -0.63L-24.17 -0.63L-24.17 -8.28L-27.66 -8.28L-27.66 -7.65L-26.26 -7.65L-26.26 -1.62C-26.84 -0.95 -27.49 -0.62 -28.22 -0.62C-29.27 -0.62 -29.8 -1.18 -29.8 -2.32L-29.8 -8.28L-33.05 -8.28L-33.05 -7.65L-31.9 -7.65L-31.9 -2.7C-31.9 -1.6 -31.5 -0.81 -30.71 -0.34C-30.13 -0.01 -29.42 0.16 -28.59 0.16C-27.75 0.16 -26.98 -0.16 -26.26 -0.79Z M-12.05 -1.42L-12.48 -1.81C-13.28 -1.01 -14.17 -0.61 -15.15 -0.61C-15.59 -0.61 -15.97 -0.7 -16.29 -0.87C-17.24 -1.4 -17.71 -2.49 -17.71 -4.16L-17.71 -4.41L-11.85 -4.41C-11.85 -5.03 -11.93 -5.58 -12.08 -6.08C-12.56 -7.64 -13.73 -8.41 -15.59 -8.41C-16.85 -8.41 -17.89 -8.02 -18.71 -7.23C-19.53 -6.44 -19.95 -5.42 -19.95 -4.17C-19.95 -2.91 -19.54 -1.88 -18.72 -1.07C-18.33 -0.69 -17.85 -0.38 -17.29 -0.17C-16.73 0.05 -16.19 0.16 -15.67 0.16C-14.1 0.16 -12.9 -0.36 -12.05 -1.42ZM-14.03 -5.07L-17.67 -5.07C-17.51 -6.85 -16.84 -7.73 -15.67 -7.73C-15.09 -7.73 -14.68 -7.51 -14.42 -7.05C-14.17 -6.59 -14.04 -5.93 -14.03 -5.07Z M2.11 0.16C2.35 0.16 2.59 0.13 2.81 0.08C3.48 -0.08 4.01 -0.4 4.39 -0.88L3.96 -1.26C3.53 -0.78 3.05 -0.54 2.51 -0.54C2.16 -0.54 1.88 -0.65 1.68 -0.87C1.47 -1.09 1.37 -1.45 1.37 -1.94L1.37 -7.65L4.03 -7.65L4.03 -8.28L1.37 -8.28L1.37 -11.3C1.3 -11.25 1.18 -11.2 1.02 -11.14C0.31 -10.89 -0.29 -10.76 -0.78 -10.76L-0.78 -8.28L-1.76 -8.28L-1.76 -7.65L-0.78 -7.65L-0.78 -2.53C-0.78 -0.73 0.18 0.16 2.11 0.16Z M8.14 -7.24C7.33 -6.45 6.93 -5.42 6.93 -4.15C6.93 -2.87 7.33 -1.84 8.14 -1.04C8.94 -0.24 9.97 0.16 11.2 0.16C12.44 0.16 13.45 -0.24 14.24 -1.04C15.03 -1.84 15.43 -2.87 15.43 -4.15C15.43 -5.43 15.03 -6.46 14.24 -7.24C13.44 -8.03 12.43 -8.42 11.2 -8.42C9.97 -8.42 8.95 -8.03 8.14 -7.24ZM11.18 -0.51C10.43 -0.51 9.89 -0.86 9.57 -1.57C9.31 -2.15 9.18 -3.02 9.18 -4.16C9.18 -4.68 9.21 -5.15 9.26 -5.59C9.45 -7.02 10.09 -7.74 11.18 -7.74C11.93 -7.74 12.47 -7.4 12.79 -6.72C13.05 -6.15 13.18 -5.3 13.18 -4.16C13.18 -3.65 13.15 -3.18 13.1 -2.74C12.91 -1.25 12.27 -0.51 11.18 -0.51Z M26.02 2.3C25.89 2.35 25.75 2.46 25.61 2.6C25.47 2.75 25.4 2.99 25.4 3.32C25.4 3.65 25.54 3.93 25.83 4.17C26.12 4.41 26.49 4.53 26.93 4.53C27.16 4.53 27.38 4.49 27.6 4.4C27.81 4.31 28.06 4.14 28.32 3.89C28.59 3.63 28.91 3.13 29.3 2.36L30.28 0.16L33.48 -7.65L34.31 -7.65L34.31 -8.28L31.27 -8.28L31.27 -7.65L32.69 -7.65L30.5 -2.1L28.06 -7.65L29.18 -7.65L29.18 -8.28L24.82 -8.28L24.82 -7.65L25.69 -7.65L29.43 0.16L28.68 1.96C28.4 2.55 28.15 2.98 27.94 3.27C27.73 3.55 27.52 3.71 27.31 3.74C27.45 3.56 27.52 3.35 27.52 3.13C27.52 2.9 27.43 2.69 27.25 2.5C27.06 2.31 26.85 2.21 26.6 2.21C26.35 2.21 26.15 2.24 26.02 2.3Z M37.99 -7.24C37.18 -6.45 36.77 -5.42 36.77 -4.15C36.77 -2.87 37.17 -1.84 37.98 -1.04C38.79 -0.24 39.81 0.16 41.05 0.16C42.28 0.16 43.3 -0.24 44.09 -1.04C44.88 -1.84 45.27 -2.87 45.27 -4.15C45.27 -5.43 44.88 -6.46 44.08 -7.24C43.28 -8.03 42.27 -8.42 41.04 -8.42C39.81 -8.42 38.8 -8.03 37.99 -7.24ZM41.02 -0.51C40.27 -0.51 39.73 -0.86 39.41 -1.57C39.15 -2.15 39.02 -3.02 39.02 -4.16C39.02 -4.68 39.05 -5.15 39.1 -5.59C39.29 -7.02 39.93 -7.74 41.02 -7.74C41.78 -7.74 42.32 -7.4 42.63 -6.72C42.89 -6.15 43.02 -5.3 43.02 -4.16C43.02 -3.65 43 -3.18 42.94 -2.74C42.75 -1.25 42.11 -0.51 41.02 -0.51Z M54.71 -0.79L54.71 0L57.84 0L57.84 -0.63L56.8 -0.63L56.8 -8.28L53.31 -8.28L53.31 -7.65L54.71 -7.65L54.71 -1.62C54.13 -0.95 53.48 -0.62 52.75 -0.62C51.69 -0.62 51.17 -1.18 51.17 -2.32L51.17 -8.28L47.91 -8.28L47.91 -7.65L49.06 -7.65L49.06 -2.7C49.06 -1.6 49.46 -0.81 50.26 -0.34C50.84 -0.01 51.54 0.16 52.38 0.16C53.21 0.16 53.99 -0.16 54.71 -0.79Z M64.27 -7.17L64.27 -8.28L60.93 -8.28L60.93 -7.65L62.15 -7.65L62.15 -0.62L60.94 -0.62L60.94 0L66.04 0L66.04 -0.62L64.27 -0.62L64.27 -6.39C64.79 -6.96 65.44 -7.36 66.22 -7.6C66.18 -7.47 66.16 -7.34 66.16 -7.22C66.16 -6.91 66.26 -6.65 66.47 -6.44C66.67 -6.23 66.93 -6.13 67.23 -6.13C67.53 -6.13 67.79 -6.24 68 -6.45C68.21 -6.66 68.32 -6.93 68.32 -7.27C68.32 -7.61 68.19 -7.88 67.94 -8.1C67.7 -8.31 67.41 -8.42 67.09 -8.42C66.08 -8.42 65.14 -8 64.27 -7.17Z M77.85 -0.63L77.85 0L82.62 0L82.62 -0.63L81.26 -0.63L81.26 -13.64L77.8 -13.64L77.8 -13L79.12 -13L79.12 -0.63Z M87.44 -9.94C87.75 -9.94 88.01 -10.04 88.23 -10.26C88.44 -10.48 88.55 -10.74 88.55 -11.06C88.55 -11.22 88.52 -11.36 88.46 -11.5C88.27 -11.95 87.93 -12.18 87.43 -12.18C87.12 -12.18 86.85 -12.07 86.64 -11.86C86.42 -11.64 86.31 -11.33 86.31 -10.93C86.31 -10.69 86.42 -10.47 86.65 -10.26C86.87 -10.04 87.13 -9.94 87.44 -9.94ZM85.05 -0.63L85.05 0L89.82 0L89.82 -0.63L88.51 -0.63L88.51 -8.28L85.16 -8.28L85.16 -7.65L86.36 -7.65L86.36 -0.63Z M97.58 -11.58C97.58 -11.36 97.67 -11.16 97.87 -10.99C98.06 -10.82 98.26 -10.73 98.46 -10.73C98.66 -10.73 98.82 -10.75 98.95 -10.8C99.38 -10.99 99.6 -11.34 99.6 -11.86C99.6 -12.37 99.38 -12.82 98.92 -13.2C98.47 -13.58 97.88 -13.77 97.16 -13.77C96.22 -13.77 95.47 -13.47 94.91 -12.89C94.35 -12.31 94.07 -11.46 94.07 -10.33L94.07 -8.28L92.76 -8.28L92.76 -7.65L94.07 -7.65L94.07 -0.63L92.76 -0.63L92.76 0L97.88 0L97.88 -0.63L96.18 -0.63L96.18 -7.65L98 -7.65L97.84 -8.28L96.18 -8.28L96.18 -10.73C96.18 -11.54 96.27 -12.15 96.43 -12.54C96.6 -12.93 96.92 -13.13 97.38 -13.13C97.63 -13.13 97.85 -13.08 98.05 -12.99C98.25 -12.9 98.38 -12.79 98.43 -12.66C97.86 -12.57 97.58 -12.21 97.58 -11.58Z M109.01 -1.42L108.58 -1.81C107.78 -1.01 106.89 -0.61 105.91 -0.61C105.47 -0.61 105.08 -0.7 104.77 -0.87C103.82 -1.4 103.35 -2.49 103.35 -4.16L103.35 -4.41L109.21 -4.41C109.21 -5.03 109.13 -5.58 108.98 -6.08C108.5 -7.64 107.33 -8.41 105.47 -8.41C104.21 -8.41 103.17 -8.02 102.34 -7.23C101.52 -6.44 101.11 -5.42 101.11 -4.17C101.11 -2.91 101.52 -1.88 102.34 -1.07C102.73 -0.69 103.21 -0.38 103.77 -0.17C104.33 0.05 104.87 0.16 105.39 0.16C106.96 0.16 108.16 -0.36 109.01 -1.42ZM107.03 -5.07L103.39 -5.07C103.55 -6.85 104.22 -7.73 105.39 -7.73C105.97 -7.73 106.38 -7.51 106.64 -7.05C106.89 -6.59 107.02 -5.93 107.03 -5.07Z"></path></g><g id="SvgjsG4091" class="text" transform="translate(198.56042289946868, 258.01465328563444) scale(1)" light-content="false" fill="#000000"><path d="M-119.46 -0.63L-119.46 0L-116.26 0L-116.26 -0.63L-117.71 -0.63L-116.65 -3.46L-111.73 -3.46L-110.56 -0.63L-111.78 -0.63L-111.78 0L-107.37 0L-107.37 -0.63L-108.19 -0.63L-113.07 -12.39L-114.01 -12.39L-118.58 -0.63ZM-111.99 -4.09L-116.4 -4.09L-114.29 -9.69Z M-98.05 -0.84L-98.05 0L-94.75 0L-94.75 -0.63L-95.95 -0.63L-95.95 -13.64L-99.73 -13.64L-99.73 -13.01L-98.05 -13.01L-98.05 -7.68C-98.2 -7.79 -98.37 -7.89 -98.56 -7.98C-99.17 -8.28 -99.83 -8.42 -100.54 -8.42C-101.67 -8.42 -102.62 -8.03 -103.41 -7.26C-104.19 -6.48 -104.58 -5.42 -104.58 -4.08C-104.58 -3.37 -104.48 -2.74 -104.28 -2.2C-104.08 -1.66 -103.8 -1.21 -103.45 -0.86C-103.1 -0.51 -102.7 -0.25 -102.24 -0.09C-101.78 0.08 -101.33 0.16 -100.91 0.16C-99.64 0.16 -98.69 -0.17 -98.05 -0.84ZM-100.2 -7.73C-100.02 -7.73 -99.84 -7.7 -99.64 -7.66C-99 -7.53 -98.47 -7.25 -98.05 -6.82L-98.05 -1.81C-98.3 -1.44 -98.61 -1.14 -98.99 -0.92C-99.36 -0.7 -99.76 -0.59 -100.16 -0.59C-100.57 -0.58 -100.91 -0.66 -101.17 -0.83C-101.93 -1.28 -102.31 -2.4 -102.31 -4.16C-102.31 -6.54 -101.61 -7.73 -100.2 -7.73Z M-85.34 -0.84L-85.34 0L-82.04 0L-82.04 -0.63L-83.24 -0.63L-83.24 -13.64L-87.02 -13.64L-87.02 -13.01L-85.34 -13.01L-85.34 -7.68C-85.49 -7.79 -85.66 -7.89 -85.85 -7.98C-86.46 -8.28 -87.12 -8.42 -87.83 -8.42C-88.96 -8.42 -89.91 -8.03 -90.69 -7.26C-91.48 -6.48 -91.87 -5.42 -91.87 -4.08C-91.87 -3.37 -91.77 -2.74 -91.57 -2.2C-91.36 -1.66 -91.09 -1.21 -90.74 -0.86C-90.39 -0.51 -89.99 -0.25 -89.52 -0.09C-89.06 0.08 -88.62 0.16 -88.2 0.16C-86.93 0.16 -85.98 -0.17 -85.34 -0.84ZM-87.49 -7.73C-87.31 -7.73 -87.12 -7.7 -86.93 -7.66C-86.29 -7.53 -85.76 -7.25 -85.34 -6.82L-85.34 -1.81C-85.59 -1.44 -85.9 -1.14 -86.28 -0.92C-86.65 -0.7 -87.04 -0.59 -87.45 -0.59C-87.86 -0.58 -88.2 -0.66 -88.46 -0.83C-89.22 -1.28 -89.6 -2.4 -89.6 -4.16C-89.6 -6.54 -88.9 -7.73 -87.49 -7.73Z M-72.11 -7.65L-68.36 0.16L-67.51 0.16L-64.31 -7.65L-63.25 -7.65L-63.25 -8.28L-66.2 -8.28L-66.2 -7.65L-65.11 -7.65L-67.3 -2.09L-69.72 -7.65L-68.68 -7.65L-68.68 -8.28L-72.95 -8.28L-72.95 -7.65Z M-55.41 -0.92C-55.29 -0.57 -55.08 -0.31 -54.78 -0.13C-54.48 0.05 -54.19 0.15 -53.89 0.15C-53.06 0.15 -52.46 -0.13 -52.1 -0.69L-52.52 -1.04C-52.72 -0.77 -52.94 -0.63 -53.16 -0.63C-53.38 -0.63 -53.49 -0.86 -53.49 -1.3L-53.49 -5.62C-53.49 -6.5 -53.78 -7.19 -54.36 -7.68C-54.95 -8.17 -55.85 -8.41 -57.06 -8.41C-57.5 -8.41 -57.97 -8.34 -58.47 -8.2C-58.97 -8.05 -59.38 -7.84 -59.71 -7.56C-59.88 -7.42 -60.02 -7.25 -60.12 -7.07C-60.22 -6.89 -60.28 -6.66 -60.28 -6.38C-60.28 -6.1 -60.17 -5.86 -59.96 -5.66C-59.75 -5.46 -59.46 -5.36 -59.08 -5.36C-58.86 -5.36 -58.65 -5.46 -58.43 -5.66C-58.21 -5.85 -58.11 -6.1 -58.11 -6.4C-58.11 -6.55 -58.13 -6.68 -58.17 -6.79C-58.31 -7.09 -58.5 -7.28 -58.75 -7.35C-58.65 -7.45 -58.46 -7.55 -58.17 -7.64C-57.88 -7.73 -57.53 -7.78 -57.12 -7.78C-56.85 -7.78 -56.61 -7.74 -56.39 -7.64C-56.17 -7.55 -55.98 -7.39 -55.82 -7.16C-55.66 -6.93 -55.58 -6.48 -55.58 -5.83L-55.58 -3.9C-56.18 -4.35 -56.92 -4.58 -57.82 -4.58C-58.71 -4.58 -59.44 -4.37 -60.01 -3.96C-60.58 -3.54 -60.86 -2.98 -60.86 -2.26C-60.86 -1.53 -60.57 -0.95 -59.99 -0.51C-59.41 -0.06 -58.73 0.16 -57.93 0.16C-56.87 0.16 -56.04 -0.2 -55.41 -0.92ZM-55.55 -3.18L-55.55 -1.56C-55.66 -1.43 -55.77 -1.31 -55.9 -1.2C-56.35 -0.82 -56.82 -0.63 -57.31 -0.63C-57.48 -0.63 -57.65 -0.66 -57.82 -0.71C-58.41 -0.89 -58.71 -1.4 -58.71 -2.24C-58.71 -2.8 -58.57 -3.21 -58.29 -3.47C-58.02 -3.73 -57.61 -3.85 -57.06 -3.85C-56.52 -3.85 -56.01 -3.63 -55.55 -3.18Z M-49.78 -0.63L-49.78 0L-45.01 0L-45.01 -0.63L-46.37 -0.63L-46.37 -13.64L-49.84 -13.64L-49.84 -13L-48.52 -13L-48.52 -0.63Z M-35.89 -0.79L-35.89 0L-32.75 0L-32.75 -0.63L-33.8 -0.63L-33.8 -8.28L-37.29 -8.28L-37.29 -7.65L-35.89 -7.65L-35.89 -1.62C-36.47 -0.95 -37.12 -0.62 -37.85 -0.62C-38.9 -0.62 -39.43 -1.18 -39.43 -2.32L-39.43 -8.28L-42.68 -8.28L-42.68 -7.65L-41.53 -7.65L-41.53 -2.7C-41.53 -1.6 -41.13 -0.81 -40.33 -0.34C-39.76 -0.01 -39.05 0.16 -38.22 0.16C-37.38 0.16 -36.61 -0.16 -35.89 -0.79Z M-21.68 -1.42L-22.11 -1.81C-22.91 -1.01 -23.8 -0.61 -24.78 -0.61C-25.22 -0.61 -25.6 -0.7 -25.92 -0.87C-26.87 -1.4 -27.34 -2.49 -27.34 -4.16L-27.34 -4.41L-21.48 -4.41C-21.48 -5.03 -21.55 -5.58 -21.71 -6.08C-22.19 -7.64 -23.36 -8.41 -25.22 -8.41C-26.48 -8.41 -27.52 -8.02 -28.34 -7.23C-29.16 -6.44 -29.57 -5.42 -29.57 -4.17C-29.57 -2.91 -29.17 -1.88 -28.35 -1.07C-27.96 -0.69 -27.48 -0.38 -26.92 -0.17C-26.36 0.05 -25.82 0.16 -25.3 0.16C-23.73 0.16 -22.53 -0.36 -21.68 -1.42ZM-23.65 -5.07L-27.3 -5.07C-27.14 -6.85 -26.47 -7.73 -25.3 -7.73C-24.72 -7.73 -24.3 -7.51 -24.05 -7.05C-23.8 -6.59 -23.66 -5.93 -23.65 -5.07Z M-7.52 0.16C-7.28 0.16 -7.04 0.13 -6.82 0.08C-6.15 -0.08 -5.62 -0.4 -5.23 -0.88L-5.66 -1.26C-6.1 -0.78 -6.58 -0.54 -7.12 -0.54C-7.47 -0.54 -7.74 -0.65 -7.95 -0.87C-8.16 -1.09 -8.26 -1.45 -8.26 -1.94L-8.26 -7.65L-5.6 -7.65L-5.6 -8.28L-8.26 -8.28L-8.26 -11.3C-8.33 -11.25 -8.45 -11.2 -8.61 -11.14C-9.32 -10.89 -9.92 -10.76 -10.41 -10.76L-10.41 -8.28L-11.39 -8.28L-11.39 -7.65L-10.41 -7.65L-10.41 -2.53C-10.41 -0.73 -9.45 0.16 -7.52 0.16Z M-1.49 -7.24C-2.3 -6.45 -2.7 -5.42 -2.7 -4.15C-2.7 -2.87 -2.3 -1.84 -1.49 -1.04C-0.68 -0.24 0.34 0.16 1.57 0.16C2.81 0.16 3.82 -0.24 4.61 -1.04C5.41 -1.84 5.8 -2.87 5.8 -4.15C5.8 -5.43 5.4 -6.46 4.61 -7.24C3.81 -8.03 2.8 -8.42 1.57 -8.42C0.34 -8.42 -0.68 -8.03 -1.49 -7.24ZM1.55 -0.51C0.8 -0.51 0.26 -0.86 -0.06 -1.57C-0.32 -2.15 -0.45 -3.02 -0.45 -4.16C-0.45 -4.68 -0.42 -5.15 -0.37 -5.59C-0.18 -7.02 0.46 -7.74 1.55 -7.74C2.31 -7.74 2.84 -7.4 3.16 -6.72C3.42 -6.15 3.55 -5.3 3.55 -4.16C3.55 -3.65 3.52 -3.18 3.47 -2.74C3.28 -1.25 2.64 -0.51 1.55 -0.51Z M16.39 2.3C16.26 2.35 16.12 2.46 15.98 2.6C15.84 2.75 15.77 2.99 15.77 3.32C15.77 3.65 15.91 3.93 16.2 4.17C16.5 4.41 16.86 4.53 17.3 4.53C17.53 4.53 17.75 4.49 17.97 4.4C18.19 4.31 18.43 4.14 18.69 3.89C18.96 3.63 19.29 3.13 19.67 2.36L20.65 0.16L23.86 -7.65L24.68 -7.65L24.68 -8.28L21.65 -8.28L21.65 -7.65L23.06 -7.65L20.88 -2.1L18.43 -7.65L19.56 -7.65L19.56 -8.28L15.19 -8.28L15.19 -7.65L16.06 -7.65L19.8 0.16L19.05 1.96C18.77 2.55 18.52 2.98 18.31 3.27C18.1 3.55 17.89 3.71 17.69 3.74C17.82 3.56 17.89 3.35 17.89 3.13C17.89 2.9 17.8 2.69 17.62 2.5C17.44 2.31 17.22 2.21 16.97 2.21C16.72 2.21 16.53 2.24 16.39 2.3Z M28.36 -7.24C27.55 -6.45 27.14 -5.42 27.14 -4.15C27.14 -2.87 27.55 -1.84 28.35 -1.04C29.16 -0.24 30.18 0.16 31.42 0.16C32.65 0.16 33.67 -0.24 34.46 -1.04C35.25 -1.84 35.65 -2.87 35.65 -4.15C35.65 -5.43 35.25 -6.46 34.45 -7.24C33.65 -8.03 32.64 -8.42 31.41 -8.42C30.19 -8.42 29.17 -8.03 28.36 -7.24ZM31.39 -0.51C30.64 -0.51 30.11 -0.86 29.78 -1.57C29.52 -2.15 29.39 -3.02 29.39 -4.16C29.39 -4.68 29.42 -5.15 29.47 -5.59C29.66 -7.02 30.3 -7.74 31.39 -7.74C32.15 -7.74 32.69 -7.4 33.01 -6.72C33.26 -6.15 33.39 -5.3 33.39 -4.16C33.39 -3.65 33.37 -3.18 33.31 -2.74C33.12 -1.25 32.48 -0.51 31.39 -0.51Z M45.08 -0.79L45.08 0L48.21 0L48.21 -0.63L47.17 -0.63L47.17 -8.28L43.68 -8.28L43.68 -7.65L45.08 -7.65L45.08 -1.62C44.5 -0.95 43.85 -0.62 43.12 -0.62C42.07 -0.62 41.54 -1.18 41.54 -2.32L41.54 -8.28L38.28 -8.28L38.28 -7.65L39.43 -7.65L39.43 -2.7C39.43 -1.6 39.83 -0.81 40.63 -0.34C41.21 -0.01 41.92 0.16 42.75 0.16C43.58 0.16 44.36 -0.16 45.08 -0.79Z M54.64 -7.17L54.64 -8.28L51.3 -8.28L51.3 -7.65L52.52 -7.65L52.52 -0.62L51.31 -0.62L51.31 0L56.41 0L56.41 -0.62L54.64 -0.62L54.64 -6.39C55.16 -6.96 55.81 -7.36 56.59 -7.6C56.55 -7.47 56.53 -7.34 56.53 -7.22C56.53 -6.91 56.63 -6.65 56.84 -6.44C57.05 -6.23 57.3 -6.13 57.6 -6.13C57.91 -6.13 58.16 -6.24 58.37 -6.45C58.58 -6.66 58.69 -6.93 58.69 -7.27C58.69 -7.61 58.56 -7.88 58.32 -8.1C58.07 -8.31 57.78 -8.42 57.46 -8.42C56.45 -8.42 55.51 -8 54.64 -7.17Z M68.18 -0.63L68.18 0L72.91 0L72.91 -0.63L71.6 -0.63L71.6 -6.42C71.94 -6.83 72.31 -7.14 72.74 -7.34C73.16 -7.55 73.54 -7.65 73.87 -7.65C74.21 -7.65 74.46 -7.61 74.63 -7.52C74.79 -7.44 74.94 -7.28 75.07 -7.05C75.2 -6.83 75.27 -6.4 75.27 -5.77L75.27 -0.63L73.96 -0.63L73.96 0L78.69 0L78.69 -0.63L77.38 -0.63L77.38 -5.6C77.38 -6.64 77.02 -7.4 76.31 -7.87C75.75 -8.24 75.11 -8.42 74.39 -8.42C73.32 -8.42 72.39 -8.04 71.6 -7.28L71.6 -13.64L68.1 -13.64L68.1 -13.01L69.5 -13.01L69.5 -0.63Z M82.23 -7.24C81.42 -6.45 81.02 -5.42 81.02 -4.15C81.02 -2.87 81.42 -1.84 82.23 -1.04C83.04 -0.24 84.06 0.16 85.29 0.16C86.53 0.16 87.54 -0.24 88.33 -1.04C89.13 -1.84 89.52 -2.87 89.52 -4.15C89.52 -5.43 89.12 -6.46 88.33 -7.24C87.53 -8.03 86.52 -8.42 85.29 -8.42C84.06 -8.42 83.04 -8.03 82.23 -7.24ZM85.27 -0.51C84.52 -0.51 83.98 -0.86 83.66 -1.57C83.4 -2.15 83.27 -3.02 83.27 -4.16C83.27 -4.68 83.3 -5.15 83.35 -5.59C83.54 -7.02 84.18 -7.74 85.27 -7.74C86.03 -7.74 86.56 -7.4 86.88 -6.72C87.14 -6.15 87.27 -5.3 87.27 -4.16C87.27 -3.65 87.24 -3.18 87.19 -2.74C87 -1.25 86.36 -0.51 85.27 -0.51Z M97.85 -7.64C98.09 -7.64 98.3 -7.6 98.46 -7.52C98.61 -7.44 98.76 -7.29 98.88 -7.07C99 -6.86 99.07 -6.47 99.07 -5.9L99.07 -0.63L97.75 -0.63L97.75 0L102.49 0L102.49 -0.63L101.17 -0.63L101.17 -5.72C101.17 -5.91 101.15 -6.11 101.12 -6.34C101.37 -6.73 101.7 -7.05 102.1 -7.29C102.49 -7.53 102.92 -7.64 103.39 -7.64C103.63 -7.64 103.84 -7.6 104 -7.52C104.17 -7.44 104.32 -7.28 104.46 -7.06C104.6 -6.84 104.67 -6.44 104.67 -5.85L104.67 -0.63L103.28 -0.63L103.28 0L108.1 0L108.1 -0.63L106.78 -0.63L106.78 -5.6C106.78 -6.64 106.42 -7.4 105.71 -7.87C105.15 -8.24 104.51 -8.42 103.79 -8.42C102.7 -8.42 101.73 -7.95 100.88 -7.02C100.75 -7.29 100.58 -7.51 100.37 -7.68C99.8 -8.18 99.07 -8.42 98.17 -8.42C97.27 -8.42 96.44 -8.07 95.67 -7.36L95.67 -8.28L92.24 -8.28L92.24 -7.67L93.56 -7.67L93.56 -0.63L92.25 -0.63L92.25 0L96.99 0L96.99 -0.63L95.67 -0.63L95.67 -6.54C96.29 -7.27 97.02 -7.64 97.85 -7.64Z M118.64 -1.42L118.21 -1.81C117.41 -1.01 116.52 -0.61 115.54 -0.61C115.09 -0.61 114.71 -0.7 114.39 -0.87C113.45 -1.4 112.98 -2.49 112.98 -4.16L112.98 -4.41L118.84 -4.41C118.84 -5.03 118.76 -5.58 118.61 -6.08C118.12 -7.64 116.96 -8.41 115.1 -8.41C113.84 -8.41 112.79 -8.02 111.97 -7.23C111.15 -6.44 110.74 -5.42 110.74 -4.17C110.74 -2.91 111.15 -1.88 111.96 -1.07C112.36 -0.69 112.84 -0.38 113.4 -0.17C113.96 0.05 114.5 0.16 115.02 0.16C116.58 0.16 117.79 -0.36 118.64 -1.42ZM116.66 -5.07L113.02 -5.07C113.18 -6.85 113.85 -7.73 115.02 -7.73C115.6 -7.73 116.01 -7.51 116.26 -7.05C116.52 -6.59 116.65 -5.93 116.66 -5.07Z"></path></g><rect id="SvgjsRect4092" width="283.3514961401934" height="2.1826490231882865" fill="#333333" transform="translate(60.77812185226301, 236.80236026348388) scale(1)" light-content="false"></rect></g></g></svg>