<svg xmlns="http://www.w3.org/2000/svg"
shape-rendering="geometricPrecision"
width="4000" height="4000" viewBox="0 0 1024 1024">
  <metadata>null</metadata>

<path d="
M 237.389 569.601
C 236.186 567.271 237.207 566.524 238.108 564.284
C 239.331 561.241 240.825 558.309 241.96 555.222
C 245.587 545.355 246.758 534.647 245.803 524.229
C 245.224 517.912 243.518 511.083 241.008 505.256
C 240.386 503.81 240.135 502.14 239.296 500.796
C 238.938 500.224 238.116 499.177 237.467 500.003
C 237.661 490.854 235.51 481.498 232.053 473.071
C 226.355 459.183 216.115 446.888 202.874 439.633
C 175.896 424.851 140.519 431.139 120.519 454.489
C 115.089 460.83 110.945 468.213 108.25 476.105
C 105.676 483.643 103.956 492.075 104.307 500.088
C 103.854 500.134 104.173 500.062 103.811 500.998
C 103.282 502.364 103.035 503.831 102.726 505.258
C 101.474 511.031 100.439 516.823 100.234 522.742
C 99.626 540.333 103.272 559.25 113.819 573.693
C 117.048 578.115 121.114 581.264 125.179 584.839
C 125.653 585.192 126.147 585.51 126.627 585.854
C 123.07 584.486 119.911 581.985 116.811 579.816
C 110.296 575.259 104.346 570.262 98.969 564.393
C 76.364 539.719 68.25 502.513 78.528 470.592
C 82.928 456.926 89.991 444.496 99.738 433.943
C 105.658 427.533 112.407 421.64 119.919 417.14
C 128.698 411.881 138.457 407.924 148.466 405.76
C 180.931 398.739 215.867 407.07 239.58 430.926
C 269.353 460.877 276.24 509.283 256.589 546.507
C 252.044 555.116 246.122 564.701 238.486 570.94
C 237.952 570.684 237.662 570.107 237.389 569.601 Z"
opacity="1" fill="rgb(243,132,34)" fill-rule="evenodd" />
<path d="
M 104.307 500.088
C 104.642 501.37 104.374 502.575 104.462 503.875
C 104.633 506.394 104.904 508.946 105.317 511.439
C 106.84 520.612 109.97 529.632 115.215 537.365
C 120.078 544.535 126.01 550.869 133.161 555.81
C 151.03 568.157 174.367 571.06 194.85 564.006
C 201.605 561.679 207.849 557.884 213.472 553.543
C 215.347 554.535 216.958 556.78 218.363 558.345
C 221.536 561.881 224.717 565.41 227.968 568.876
C 239.348 581.011 250.91 593.153 261.722 605.796
C 265.206 609.87 268.879 613.806 272.491 617.766
C 273.405 618.769 274.294 619.795 275.198 620.802
C 275.52 621.16 276.03 621.305 276.071 621.806
C 267.319 622.368 258.28 621.734 249.499 621.719
C 247.165 621.715 244.831 621.717 242.497 621.71
C 241.565 621.707 240.194 621.989 239.337 621.544
C 238.204 620.955 237.299 619.602 236.428 618.693
C 234.439 616.617 232.523 614.476 230.552 612.385
C 223.619 605.031 216.99 597.36 209.953 590.113
C 206.989 590.617 203.912 592.194 201.023 593.103
C 195.919 594.709 190.686 595.698 185.392 596.437
C 170.808 598.472 155.146 596.896 141.218 592.112
C 136.146 590.37 131.474 588.091 126.627 585.854
C 126.147 585.51 125.653 585.192 125.179 584.839
C 121.114 581.264 117.048 578.115 113.819 573.693
C 103.272 559.25 99.626 540.333 100.234 522.742
C 100.439 516.823 101.474 511.031 102.726 505.258
C 103.035 503.831 103.282 502.364 103.811 500.998
C 104.173 500.062 103.854 500.134 104.307 500.088 Z"
opacity="1" fill="rgb(12,56,126)" fill-rule="evenodd" />
<path d="
M 127.488 486.107
C 128.66 476.792 132.373 468.432 139.655 462.215
C 154.905 449.196 179.204 452.749 190.443 469.145
C 196.806 478.426 198.179 490.08 194.322 500.631
C 193.414 503.117 192.246 505.512 190.781 507.719
C 190.074 508.784 188.734 509.748 188.596 511.047
C 189.703 511.748 190.618 513.574 191.909 513.894
C 192.825 513.475 193.591 513.135 194.615 513.081
C 197.037 514.528 198.852 516.876 200.767 518.906
C 203.833 522.156 206.915 525.384 209.959 528.654
C 212.174 531.033 215.222 533.17 216.796 536.063
C 218.074 538.412 216.99 541.341 215.211 543.134
C 213.502 544.856 210.38 546.159 208.037 545.061
C 205.278 543.769 202.935 540.382 200.893 538.191
C 197.516 534.567 194.128 530.951 190.744 527.335
C 189.2 525.685 186.964 523.884 185.834 521.947
C 185.843 521.031 186.372 520.134 186.209 519.224
C 185.626 518.113 184.28 516.682 183.144 516.116
C 177.334 520.315 171.53 522.963 164.231 523.351
C 143.64 524.445 125.616 507.016 127.488 486.107 Z
M 135.975 486.117
C 135.267 494.642 138.496 503.571 145.213 509.087
C 157.586 519.248 177.128 516.002 184.775 501.725
C 186.509 498.489 187.565 494.811 187.898 491.159
C 188.244 487.37 187.855 483.227 186.421 479.68
C 182.817 470.764 175.488 464.27 165.876 462.583
C 151.465 460.053 137.163 471.81 135.975 486.117 Z"
opacity="1" fill="rgb(13,56,127)" fill-rule="evenodd" />
<path d="
M 140.969 484.091
C 143.029 474.786 151.316 467.227 161.105 467.404
C 161.319 468.858 161.444 470.303 161.689 471.746
C 159.288 471.261 156.489 472.494 154.448 473.615
C 148.773 476.734 144.373 483.098 144.827 489.827
C 143.545 489.792 142.247 489.823 140.969 489.923
C 139.947 488.732 140.673 485.53 140.969 484.091 Z"
opacity="1" fill="rgb(10,54,122)" fill-rule="evenodd" />
<path d="
M 237.467 500.003
C 238.116 499.177 238.938 500.224 239.296 500.796
C 240.135 502.14 240.386 503.81 241.008 505.256
C 243.518 511.083 245.224 517.912 245.803 524.229
C 246.758 534.647 245.587 545.355 241.96 555.222
C 240.825 558.309 239.331 561.241 238.108 564.284
C 237.207 566.524 236.186 567.271 237.389 569.601
C 235.674 568.194 234.323 566.231 232.834 564.585
C 228.318 559.591 223.96 553.941 218.942 549.46
C 221.831 545.513 225.056 541.96 227.643 537.755
C 234.516 526.585 237.429 512.995 237.467 500.003 Z"
opacity="1" fill="rgb(220,106,27)" fill-rule="evenodd" />
<path d="
M 283.616 475.667
C 291.319 475.425 299.029 475.651 306.736 475.598
C 307.146 481.345 306.795 487.238 306.794 493.001
C 306.793 503.786 306.809 514.571 306.869 525.356
C 306.915 533.467 305.786 542.98 309.987 550.315
C 318.4 565 342.514 560.551 349.265 546.845
C 352.97 539.322 351.948 530.117 351.935 521.997
C 351.91 506.608 351.775 491.214 351.878 475.827
C 353.184 474.831 356.41 475.434 358.009 475.425
C 363.657 475.391 369.406 475.054 375.042 475.458
C 375.961 477.667 375.225 481.6 375.233 484.007
C 375.255 491.006 375.253 498.006 375.258 505.005
C 375.276 528.723 375.919 552.543 375.335 576.249
C 373.501 575.986 371.373 576.25 369.5 576.247
C 364.293 576.236 358.964 576.572 353.772 576.159
C 353.548 571.356 353.88 566.52 353.518 561.733
C 352.712 561.602 351.718 563.79 351.237 564.513
C 349.325 567.395 347.002 569.973 344.246 572.071
C 336.99 577.595 328.066 579.87 319.009 579.584
C 315.138 579.462 311.068 578.754 307.393 577.541
C 304.079 576.447 300.993 574.993 298.108 573.011
C 281.063 561.299 283.757 537.391 283.687 519.433
C 283.662 513.125 283.65 506.816 283.627 500.508
C 283.597 492.237 283.38 483.931 283.616 475.667 Z"
opacity="1" fill="rgb(13,56,126)" fill-rule="evenodd" />
<path d="
M 395.44 520.605
C 396.819 505.463 404.646 489.841 417.89 481.672
C 441.399 467.171 474.55 470.665 491.306 493.848
C 493.846 497.361 496.041 501.256 497.542 505.332
C 500.672 513.826 501.992 522.8 501.21 531.852
C 499.782 548.372 490.979 563.442 476.677 572.045
C 449.765 588.232 410.636 577.678 399.061 547.497
C 395.786 538.959 394.611 529.709 395.44 520.605 Z
M 418.968 520.619
C 417.738 531.695 420.046 544.102 428.745 551.819
C 440.073 561.87 459.318 561.864 469.828 550.534
C 474.607 545.382 476.89 538.693 477.667 531.829
C 479.021 519.847 475.957 506.236 465.839 498.675
C 454.999 490.575 437.906 491.427 428.165 501.007
C 422.966 506.121 419.768 513.403 418.968 520.619 Z"
opacity="1" fill="rgb(11,55,127)" fill-rule="evenodd" />
<path d="
M 509.762 475.203
C 515.634 474.278 521.681 475.427 527.57 474.875
C 527.72 474.844 527.626 473.57 527.627 473.42
C 527.636 471.615 527.628 469.809 527.637 468.003
C 527.671 460.553 526.836 452.642 527.703 445.249
C 535.281 445.333 543.012 444.703 550.572 445.289
C 551.14 450.074 550.657 455.184 550.675 460.005
C 550.693 464.948 551.202 470.179 550.687 475.086
C 555.778 475.248 560.912 475.017 566.009 475.049
C 568.015 475.061 570.853 474.525 572.73 475.183
C 572.423 481.508 572.602 488.011 572.747 494.343
C 567.549 495.11 561.762 494.362 556.505 494.407
C 555.046 494.42 551.941 493.791 550.744 494.644
C 551.101 509.368 550.777 524.168 550.74 538.899
C 550.726 544.474 549.342 552.518 553.752 556.806
C 558.806 561.719 566.865 558.647 572.505 556.83
C 572.907 561.336 572.696 565.98 572.681 570.505
C 572.676 571.978 573.16 574.341 572.446 575.647
C 568.011 577.543 563.498 578.799 558.682 579.267
C 555.134 579.612 551.481 579.428 547.989 578.723
C 545.262 578.171 542.61 577.474 540.133 576.165
C 529.532 570.566 527.673 559.204 527.579 548.293
C 527.504 539.536 527.82 530.743 527.526 521.991
C 527.22 512.909 527.032 503.622 527.319 494.541
C 521.659 494.17 515.57 494.041 509.914 494.456
C 509.223 493.131 509.746 490.512 509.736 489.003
C 509.706 484.41 509.606 479.793 509.762 475.203 Z"
opacity="1" fill="rgb(12,56,126)" fill-rule="evenodd" />
<path d="
M 582.955 519.102
C 584.477 509.646 587.136 500.78 592.941 492.994
C 607.525 473.432 635.885 467.481 657.637 477.971
C 673.561 485.65 682.407 502.967 683.459 520.067
C 683.658 523.298 683.791 526.525 683.691 529.775
C 683.656 530.893 683.97 532.721 683.407 533.727
C 657.552 534.492 631.613 533.333 605.747 533.759
C 606.718 540.037 608.985 546.018 613.321 550.785
C 621.832 560.14 636.825 562.185 648.218 557.48
C 653.836 555.16 657.732 551.288 661.481 546.653
C 662.703 546.512 664.918 548.453 666.064 549.035
C 668.927 550.491 671.81 551.904 674.701 553.303
C 676.252 554.053 678.16 554.535 679.531 555.57
C 677.774 560.604 672.559 565.256 668.537 568.52
C 654.266 580.103 633.415 582.34 616.351 576.324
C 611.116 574.478 606.06 571.802 601.651 568.421
C 586.591 556.874 580.814 537.504 582.955 519.102 Z
M 606.484 515.601
C 606.34 516.18 606.358 515.917 606.375 516.385
C 612.89 515.549 619.936 516.253 626.507 516.24
C 637.796 516.218 649.162 515.908 660.442 516.403
C 659.942 509.046 656.342 501.52 650.463 497.01
C 642.161 490.643 629.466 490.56 620.468 495.475
C 615.02 498.451 610.897 503.257 608.506 508.948
C 607.595 511.118 607.191 513.379 606.484 515.601 Z"
opacity="1" fill="rgb(12,55,126)" fill-rule="evenodd" />
<path d="
M 729.307 425.27
C 733.157 424.785 737.13 425.028 741.007 425.024
C 747.674 425.017 754.34 425.015 761.007 425.015
C 782.769 425.015 804.573 424.092 823.904 435.834
C 848.258 450.627 860.235 477.559 858.943 505.498
C 858.531 514.399 857.037 523.466 853.56 531.728
C 848.558 543.616 841.043 553.194 831.112 561.313
C 820.567 569.933 806.142 574.775 792.715 576.081
C 785.509 576.782 778.237 576.548 771.005 576.552
C 761.504 576.556 752.004 576.533 742.503 576.533
C 738.165 576.533 733.696 576.192 729.379 576.487
C 728.937 575.244 729.252 573.513 729.269 572.209
C 729.307 569.142 729.264 566.072 729.26 563.005
C 729.247 552.673 729.222 542.34 729.199 532.008
C 729.121 496.442 729.826 460.828 729.307 425.27 Z
M 753.285 447.337
C 753.522 455.704 753.232 464.128 753.22 472.501
C 753.195 489.668 753.185 506.834 753.193 524.001
C 753.197 531.168 753.198 538.335 753.205 545.502
C 753.207 547.569 753.213 549.636 753.2 551.703
C 753.195 552.49 753.017 553.702 753.33 554.412
C 765.061 553.246 777.035 555.062 788.791 554.147
C 798.438 553.396 807.805 550.341 815.589 544.514
C 824.85 537.581 830.409 527.106 833.081 516.056
C 838.565 493.38 831.337 467.049 810.775 454.363
C 800.085 447.768 788.017 447.195 775.825 447.215
C 768.312 447.228 760.792 447.285 753.285 447.337 Z"
opacity="1" fill="rgb(243,132,34)" fill-rule="evenodd" />
<path d="
M 878.402 475.785
C 885.466 475.212 892.74 475.614 899.824 475.783
C 900.248 477.853 899.899 480.381 899.886 482.497
C 899.861 486.576 900.025 490.662 899.945 494.74
C 900.094 495.125 900.443 494.434 900.493 494.277
C 900.909 492.956 901.358 491.664 901.874 490.372
C 903.008 487.534 904.847 484.919 906.876 482.654
C 912.041 476.892 919.851 473.477 927.581 473.364
C 929.291 473.339 932.957 473.001 934.362 474.062
C 935.328 481.316 933.535 488.932 934.48 496.165
C 933.915 496.297 932.994 495.965 932.419 495.895
C 930.724 495.691 928.963 495.645 927.257 495.668
C 921.585 495.742 915.732 497.271 911.292 500.967
C 901.897 508.789 901.42 520.303 901.342 531.583
C 901.286 539.744 901.315 547.906 901.289 556.067
C 901.274 560.71 901.285 565.354 901.274 569.998
C 901.27 571.846 900.808 574.51 901.274 576.264
C 896.033 576.485 890.743 576.336 885.497 576.317
C 883.431 576.31 880.541 576.864 878.608 576.163
C 878.616 542.741 878.804 509.212 878.402 475.785 Z"
opacity="1" fill="rgb(243,132,34)" fill-rule="evenodd" />
<path d="
M 933.454 561.601
C 933.629 559.419 934.319 557.233 935.417 555.344
C 937.071 552.497 939.572 550.051 942.605 548.719
C 952.982 544.165 965.176 553.252 964.046 564.459
C 963.827 566.629 963.19 568.786 962.115 570.689
C 961.126 572.439 959.882 574.086 958.243 575.28
C 947.585 583.04 932.382 574.934 933.454 561.601 Z"
opacity="1" fill="rgb(244,134,35)" fill-rule="evenodd" />

</svg>