<svg xmlns="http://www.w3.org/2000/svg" width="512" height="512" viewBox="0 0 512 512">
  <!-- White background -->
  <rect width="512" height="512" fill="white" rx="80"/>
  
  <!-- Scale and center the Q glyph to fit nicely with padding -->
  <!-- Original Q spans x:68-280, y:398-626 in 1024x1024 -->
  <!-- Width: ~212, Height: ~228. Center: ~174, 512 -->
  <!-- We want to fit in ~380x380 centered in 512x512 with the tail -->
  <g transform="translate(256,248) scale(1.65) translate(-174,-512)">
    <!-- Orange outer swoosh -->
    <path d="M 237.389 569.601 C 236.186 567.271 237.207 566.524 238.108 564.284 C 239.331 561.241 240.825 558.309 241.96 555.222 C 245.587 545.355 246.758 534.647 245.803 524.229 C 245.224 517.912 243.518 511.083 241.008 505.256 C 240.386 503.81 240.135 502.14 239.296 500.796 C 238.938 500.224 238.116 499.177 237.467 500.003 C 237.661 490.854 235.51 481.498 232.053 473.071 C 226.355 459.183 216.115 446.888 202.874 439.633 C 175.896 424.851 140.519 431.139 120.519 454.489 C 115.089 460.83 110.945 468.213 108.25 476.105 C 105.676 483.643 103.956 492.075 104.307 500.088 C 103.854 500.134 104.173 500.062 103.811 500.998 C 103.282 502.364 103.035 503.831 102.726 505.258 C 101.474 511.031 100.439 516.823 100.234 522.742 C 99.626 540.333 103.272 559.25 113.819 573.693 C 117.048 578.115 121.114 581.264 125.179 584.839 C 125.653 585.192 126.147 585.51 126.627 585.854 C 123.07 584.486 119.911 581.985 116.811 579.816 C 110.296 575.259 104.346 570.262 98.969 564.393 C 76.364 539.719 68.25 502.513 78.528 470.592 C 82.928 456.926 89.991 444.496 99.738 433.943 C 105.658 427.533 112.407 421.64 119.919 417.14 C 128.698 411.881 138.457 407.924 148.466 405.76 C 180.931 398.739 215.867 407.07 239.58 430.926 C 269.353 460.877 276.24 509.283 256.589 546.507 C 252.044 555.116 246.122 564.701 238.486 570.94 C 237.952 570.684 237.662 570.107 237.389 569.601 Z" fill="rgb(243,132,34)"/>
    <!-- Blue body with tail -->
    <path d="M 104.307 500.088 C 104.642 501.37 104.374 502.575 104.462 503.875 C 104.633 506.394 104.904 508.946 105.317 511.439 C 106.84 520.612 109.97 529.632 115.215 537.365 C 120.078 544.535 126.01 550.869 133.161 555.81 C 151.03 568.157 174.367 571.06 194.85 564.006 C 201.605 561.679 207.849 557.884 213.472 553.543 C 215.347 554.535 216.958 556.78 218.363 558.345 C 221.536 561.881 224.717 565.41 227.968 568.876 C 239.348 581.011 250.91 593.153 261.722 605.796 C 265.206 609.87 268.879 613.806 272.491 617.766 C 273.405 618.769 274.294 619.795 275.198 620.802 C 275.52 621.16 276.03 621.305 276.071 621.806 C 267.319 622.368 258.28 621.734 249.499 621.719 C 247.165 621.715 244.831 621.717 242.497 621.71 C 241.565 621.707 240.194 621.989 239.337 621.544 C 238.204 620.955 237.299 619.602 236.428 618.693 C 234.439 616.617 232.523 614.476 230.552 612.385 C 223.619 605.031 216.99 597.36 209.953 590.113 C 206.989 590.617 203.912 592.194 201.023 593.103 C 195.919 594.709 190.686 595.698 185.392 596.437 C 170.808 598.472 155.146 596.896 141.218 592.112 C 136.146 590.37 131.474 588.091 126.627 585.854 C 126.147 585.51 125.653 585.192 125.179 584.839 C 121.114 581.264 117.048 578.115 113.819 573.693 C 103.272 559.25 99.626 540.333 100.234 522.742 C 100.439 516.823 101.474 511.031 102.726 505.258 C 103.035 503.831 103.282 502.364 103.811 500.998 C 104.173 500.062 103.854 500.134 104.307 500.088 Z" fill="rgb(12,56,126)"/>
    <!-- Blue Q ring with hole -->
    <path d="M 127.488 486.107 C 128.66 476.792 132.373 468.432 139.655 462.215 C 154.905 449.196 179.204 452.749 190.443 469.145 C 196.806 478.426 198.179 490.08 194.322 500.631 C 193.414 503.117 192.246 505.512 190.781 507.719 C 190.074 508.784 188.734 509.748 188.596 511.047 C 189.703 511.748 190.618 513.574 191.909 513.894 C 192.825 513.475 193.591 513.135 194.615 513.081 C 197.037 514.528 198.852 516.876 200.767 518.906 C 203.833 522.156 206.915 525.384 209.959 528.654 C 212.174 531.033 215.222 533.17 216.796 536.063 C 218.074 538.412 216.99 541.341 215.211 543.134 C 213.502 544.856 210.38 546.159 208.037 545.061 C 205.278 543.769 202.935 540.382 200.893 538.191 C 197.516 534.567 194.128 530.951 190.744 527.335 C 189.2 525.685 186.964 523.884 185.834 521.947 C 185.843 521.031 186.372 520.134 186.209 519.224 C 185.626 518.113 184.28 516.682 183.144 516.116 C 177.334 520.315 171.53 522.963 164.231 523.351 C 143.64 524.445 125.616 507.016 127.488 486.107 Z M 135.975 486.117 C 135.267 494.642 138.496 503.571 145.213 509.087 C 157.586 519.248 177.128 516.002 184.775 501.725 C 186.509 498.489 187.565 494.811 187.898 491.159 C 188.244 487.37 187.855 483.227 186.421 479.68 C 182.817 470.764 175.488 464.27 165.876 462.583 C 151.465 460.053 137.163 471.81 135.975 486.117 Z" fill="rgb(13,56,127)"/>
    <!-- Orange accent -->
    <path d="M 237.467 500.003 C 238.116 499.177 238.938 500.224 239.296 500.796 C 240.135 502.14 240.386 503.81 241.008 505.256 C 243.518 511.083 245.224 517.912 245.803 524.229 C 246.758 534.647 245.587 545.355 241.96 555.222 C 240.825 558.309 239.331 561.241 238.108 564.284 C 237.207 566.524 236.186 567.271 237.389 569.601 C 235.674 568.194 234.323 566.231 232.834 564.585 C 228.318 559.591 223.96 553.941 218.942 549.46 C 221.831 545.513 225.056 541.96 227.643 537.755 C 234.516 526.585 237.429 512.995 237.467 500.003 Z" fill="rgb(220,106,27)"/>
  </g>
</svg>
